<svg width="15" height="10" viewBox="0 0 15 10" fill="none" xmlns="http://www.w3.org/2000/svg">
<path d="M14.7216 9.67019C14.5361 9.89012 14.3163 10 14.0624 10H0.937571C0.683502 10 0.46386 9.89012 0.278285 9.67019C0.0927104 9.45001 0 9.1897 0 8.88877C0 8.5879 0.0927104 8.32759 0.278285 8.10759L6.84071 0.330057C7.02649 0.110121 7.24614 2.51003e-07 7.5 2.51003e-07C7.75386 2.51003e-07 7.97371 0.110121 8.15913 0.330057L14.7216 8.10765C14.9069 8.32759 15 8.5879 15 8.88883C15 9.1897 14.9069 9.45001 14.7216 9.67019Z" fill="white"/>
</svg>
